PathFileType	4	(X/Y/Z)	F:\MotionCapture\20160217\3\Generated_files\EMG_test06-Dynamic.trc
DataRate	CameraRate	NumFrames	NumMarkers	Units	OrigDataRate	OrigDataStartFrame	OrigNumFrames
120.00	120.00	        4	39	mm	120.00	25	        99
Frame#	Time	Top.Head			Front.Head			Rear.Head			R.Shoulder			R.Offset			R.Elbow			R.Wrist			L.Shoulder			L.Elbow			L.Wrist			R.ASIS			L.ASIS			V.Sacral			R.Thigh			R.Knee			R.Shank			R.Ankle			R.Heel			R.Toe			L.Thigh			L.Knee			L.Shank			L.Ankle			L.Heel			L.Toe			R1			R2			R3			R4			R5			R6			R7			L1			L2			L3			L4			L5			L6			L7			V_Mid_ASIS			V_Pelvis_Origin			V_R.Hip_JC			V_L.Hip_JC			V_R.Knee_JC			V_L.Knee_JC			V_R.Ankle_JC			V_L.Ankle_JC			V_Mid_Hip			V_Mid_Shoulder			V_R.Hand			V_L.Hand			V_R.Toe_Offset_Static			V_L.Toe_Offset_Static			V_R.Toe_Offset			V_L.Toe_Offset			
		X1	Y1	Z1	X2	Y2	Z2	X3	Y3	Z3	X4	Y4	Z4	X5	Y5	Z5	X6	Y6	Z6	X7	Y7	Z7	X8	Y8	Z8	X9	Y9	Z9	X10	Y10	Z10	X11	Y11	Z11	X12	Y12	Z12	X13	Y13	Z13	X14	Y14	Z14	X15	Y15	Z15	X16	Y16	Z16	X17	Y17	Z17	X18	Y18	Z18	X19	Y19	Z19	X20	Y20	Z20	X21	Y21	Z21	X22	Y22	Z22	X23	Y23	Z23	X24	Y24	Z24	X25	Y25	Z25	X26	Y26	Z26	X27	Y27	Z27	X28	Y28	Z28	X29	Y29	Z29	X30	Y30	Z30	X31	Y31	Z31	X32	Y32	Z32	X33	Y33	Z33	X34	Y34	Z34	X35	Y35	Z35	X36	Y36	Z36	X37	Y37	Z37	X38	Y38	Z38	X39	Y39	Z39	

25	0.200	2378.42773	57.57928	1722.21362	2287.36328	64.86020	1616.28918	2497.36035	35.79183	1678.55298	2489.70898	237.54701	1439.95374	2624.47412	-26.01172	1288.56311	2557.39697	336.16650	1121.04651	2492.07031	358.63123	867.68896	2468.85376	-172.18121	1429.16785	2513.74292	-264.63489	1107.99194	2462.98413	-267.28870	856.93707	2426.94849	199.29175	955.77777	2416.77759	-91.65510	950.57220	2645.68677	42.29007	958.48029	2382.44580	191.71138	586.75092	2444.82471	237.62761	480.48868	2451.09570	189.15384	240.37123	2514.38916	268.67120	81.36415	2578.69580	207.04347	49.61077	2368.83667	258.45981	47.55969	2384.35571	-34.98451	630.85126	2474.70068	-81.49745	471.54810	2464.54126	-0.89890	334.36472	2534.66357	-51.70591	65.87511	2597.34570	6.79638	49.50680	2393.84058	-52.53360	47.12575	2318.68018	240.71494	43.29531	2363.28638	223.21928	54.51757	2458.32764	184.52316	62.17566	2530.64795	179.51805	46.61339	2551.44482	252.25798	51.82714	2475.92798	282.90070	42.88375	2408.65186	302.15939	42.72469	2346.96338	-28.89227	41.07691	2380.72705	-13.75770	50.77778	2474.20020	33.53125	54.13501	2557.37231	36.83563	50.51448	2573.04688	-34.52687	48.42768	2500.72852	-65.70244	41.03593	2436.27075	-81.95581	43.58724																																																	2328.39844	283.04459	771.35699	2805.46899	136.19705	349.63840	
26	0.208	2377.10034	55.54124	1721.81482	2287.05884	63.64452	1615.78528	2496.48193	34.69059	1678.38721	2488.35400	236.79320	1439.98621	2624.47144	-26.16096	1288.76672	2554.09814	335.28958	1121.24805	2487.91260	357.49042	868.43835	2469.22510	-172.77794	1429.01404	2516.97412	-266.59378	1108.65430	2468.05566	-270.03625	856.77496	2427.07715	198.61092	955.78748	2418.49951	-92.82073	950.72003	2646.26221	42.08949	958.87866	2382.84814	191.62589	586.65057	2445.48560	237.59993	480.64105	2451.46167	189.15663	240.42847	2514.40283	268.67258	81.33056	2578.72754	207.10681	49.59092	2368.81567	258.41196	47.56707	2384.65234	-35.21815	630.77057	2475.64771	-81.91962	471.68875	2464.55493	-1.62014	334.60492	2534.67676	-51.65028	65.84473	2597.32617	6.83702	49.48301	2393.84888	-52.55250	47.10012	2318.74072	240.66115	43.25535	2363.31006	223.19852	54.55915	2458.31763	184.55214	62.20034	2530.75366	179.63928	46.65422	2551.47437	252.29468	51.75357	2475.85107	283.06839	42.64160	2408.67310	302.16705	42.90176	2346.97974	-28.98250	41.10369	2380.78711	-13.82210	50.81440	2474.11963	33.44815	54.23908	2557.32495	36.81861	50.55376	2573.08228	-34.53127	48.40117	2500.73633	-65.74068	41.05824	2436.41113	-82.20224	43.73218																																																	2805.59106	136.13255	349.74829	
27	0.217	2376.51953	54.62453	1721.70496	2285.53809	61.86506	1615.72998	2495.54565	33.42413	1678.46521	2487.09546	235.90273	1440.06006	2624.44434	-26.24387	1288.90979	2551.67603	335.08231	1121.33447	2483.07471	356.37677	868.83740	2469.72827	-173.47308	1429.03186	2518.92017	-266.92874	1109.33801	2472.82446	-273.12442	857.10626	2427.10986	197.72878	955.89197	2418.64282	-93.10958	950.97925	2646.73584	41.96544	959.23083	2383.14087	191.48508	586.66766	2446.21460	237.32109	480.65097	2451.83740	189.15266	240.46727	2514.48511	268.66397	81.39392	2578.74365	207.12563	49.56276	2368.86963	258.39984	47.54569	2385.18066	-35.79656	630.88458	2476.62744	-82.61174	471.76813	2465.85254	-1.77817	334.41260	2534.77490	-51.64048	65.80327	2597.32251	6.86301	49.46705	2393.89673	-52.67266	47.05450	2318.78149	240.73029	43.35693	2363.34009	223.21758	54.56164	2458.43286	184.52905	62.25453	2530.89795	179.67993	46.75012	2551.46680	252.31522	51.68475	2475.93726	282.91376	42.90525	2408.62378	302.14233	42.73782	2347.02002	-29.06395	41.10128	2381.26904	-14.05852	50.88386	2474.03882	33.45568	54.33405	2557.38184	36.81172	50.62085	2573.17261	-34.50131	48.42019	2500.74902	-65.74482	40.94402	2436.58911	-82.37733	43.88715																																																	2805.63037	136.10281	349.71381	
28	0.225	2375.23950	53.18018	1721.58240	2285.14258	60.93715	1615.22363	2494.72144	32.70609	1678.35730	2485.92554	235.21143	1440.26099	2624.55371	-26.47714	1289.14429	2549.70020	335.29333	1121.97607	2477.48145	356.47272	870.05786	2469.78003	-174.08806	1429.06958	2521.60352	-268.18280	1110.24023	2477.85254	-275.98810	857.07886	2427.07910	196.45511	955.75427	2417.57690	-93.74487	951.12744	2647.28857	42.06189	959.62921	2383.77563	191.20480	586.55914	2447.50806	236.91417	481.01224	2452.18359	189.08133	240.65906	2514.53638	268.65433	81.33424	2578.79785	207.13986	49.56631	2368.90332	258.92755	48.08798	2385.31055	-36.41361	631.22266	2477.52539	-83.29186	471.79861	2466.76758	-2.01297	334.57703	2534.87061	-51.76503	65.82846	2597.34741	6.89120	49.42432	2393.94360	-52.66704	47.09742	2318.91772	240.54680	43.44907	2363.37598	223.22169	54.64180	2458.47656	184.54411	62.27856	2530.87329	179.81367	46.69382	2551.61694	252.31883	51.72871	2475.91260	283.10995	42.66833	2408.73560	302.17667	42.85017	2347.19995	-29.22961	41.12815	2381.30249	-14.17822	50.91470	2473.94165	33.23645	54.46714	2557.37402	36.81724	50.68198	2573.20386	-34.47444	48.38474	2500.73608	-65.70576	40.87937	2436.75488	-82.52692	43.97624																																																	1650.85925	-215.68755	533.87640	2805.72070	136.00377	349.68835	2989.48022	138.63318	-144.87263	
